<?xml version="1.0" encoding="utf-8"?>
<!-- Generator: Adobe Illustrator 25.4.1, SVG Export Plug-In . SVG Version: 6.00 Build 0)  -->
<svg version="1.1" id="Layer_1" xmlns="http://www.w3.org/2000/svg" xmlns:xlink="http://www.w3.org/1999/xlink" x="0px" y="0px"
	 viewBox="0 0 256 256" style="enable-background:new 0 0 256 256;" xml:space="preserve">
<style type="text/css">
	.st0{fill:#15141A;}
	.st1{fill:#98ED66;}
</style>
<rect class="st0" width="256" height="256"/>
<path class="st1" d="M187.1,118V75.3c0-1.1-0.9-2.2-2.2-2.2h-16c-0.9,0-1.4,0.4-1.8,1.1l-21.5,42.8c-0.4,0.7-0.4,1.4,0,2
	c0.4,0.7,1.1,1.1,1.8,1.1H185C186.2,120.1,187.1,119.2,187.1,118 M191.6,61.9l18.3-12.4c0.7-0.5,1.1-1.4,0.9-2.3
	c-0.4-0.9-1.1-1.4-2-1.4H183c-0.9,0-1.4,0.4-1.8,1.1L175,59.2c-0.4,0.7-0.4,1.4,0,2c0.4,0.7,1.1,1.1,1.8,1.1h13.6
	C190.7,62.2,191.3,62,191.6,61.9z M224.8,52.7l-25.6,17.4c-0.5,0.4-0.9,1.1-0.9,1.8v46.2c0,1.1,0.9,2.2,2.2,2.2H226
	c1.1,0,2.2-0.9,2.2-2.2V54.5c0-0.7-0.4-1.4-1.1-1.8C226.2,52.2,225.5,52.2,224.8,52.7z M162.4,51.3l-20.1,6.8
	c-0.9,0.4-1.6,1.3-1.4,2.3s1.1,1.8,2.2,1.8h16.7c0.9,0,1.4-0.4,1.8-1.1l3.4-6.8c0.4-0.7,0.4-1.6-0.4-2.3
	C164.2,51.3,163.3,51.1,162.4,51.3z M22.4,221.2c-1.6,0-3.2-0.7-4.3-2.2c-1.4-1.8-1.6-4.1-0.5-6.1l0,0L91.8,65.6c0,0,0,0,0-0.2
	c0.7-1.6,2-2.7,3.6-3.2c0,0,0,0,0.2,0L176,35c0,0,0,0,0.2,0c0.7-0.2,1.3-0.4,2-0.4h55.4c3,0,5.6,2.5,5.6,5.6v85.5
	c0,3-2.5,5.6-5.6,5.6h-33.3c-1.1,0-2.2,0.9-2.2,2.2v82.5c0,3-2.5,5.6-5.6,5.6L22.4,221.2L22.4,221.2z M131,121.7L154,76.4
	c0.4-0.7,0.4-1.4,0-2c-0.4-0.7-1.1-1.1-1.8-1.1h-50.5c-0.9,0-1.4,0.4-1.8,1.1l-57,112.7c-0.5,0.9-0.2,2,0.5,2.5
	c0.7,0.7,1.8,0.7,2.7,0l84.4-67.2C130.7,122.1,130.9,121.9,131,121.7z M44.1,210.3h141.1c1.1,0,2.2-0.9,2.2-2.2v-74.9
	c0-1.1-0.9-2.2-2.2-2.2h-47.3c-0.5,0-0.9,0.2-1.3,0.5l-93.7,74.9c-0.7,0.5-0.9,1.4-0.7,2.3C42.5,209.7,43.2,210.3,44.1,210.3z"/>
</svg>
