<?xml version="1.0" encoding="utf-8"?>
<!-- Generator: Adobe Illustrator 25.4.1, SVG Export Plug-In . SVG Version: 6.00 Build 0)  -->
<svg version="1.1" id="Layer_1" xmlns="http://www.w3.org/2000/svg" xmlns:xlink="http://www.w3.org/1999/xlink" x="0px" y="0px"
	 viewBox="0 0 559.1 171.7" style="enable-background:new 0 0 559.1 171.7;" xml:space="preserve">
<style type="text/css">
	.st0{fill:#98ED66;}
	.st1{fill-rule:evenodd;clip-rule:evenodd;fill:#FFFFFF;}
</style>
<g>
	<path class="st0" d="M156.7,76.7V37.5c0-1.1-0.9-1.9-1.9-1.9H140c-0.7,0-1.4,0.4-1.7,1.1l-19.8,39.3c-0.3,0.6-0.3,1.3,0.1,1.9
		c0.4,0.6,1,0.9,1.6,0.9h34.5C155.8,78.6,156.7,77.8,156.7,76.7 M160.7,25l16.8-11.4c0.7-0.5,1-1.3,0.8-2.2c-0.3-0.8-1-1.4-1.8-1.4
		h-23.7c-0.7,0-1.4,0.4-1.7,1.1l-5.7,11.4c-0.3,0.6-0.3,1.3,0.1,1.9c0.4,0.6,1,0.9,1.6,0.9h12.6C160,25.4,160.4,25.3,160.7,25z
		 M191.3,16.6l-23.6,15.9c-0.5,0.4-0.8,0.9-0.8,1.6v42.5c0,1.1,0.9,1.9,1.9,1.9h23.6c1.1,0,1.9-0.9,1.9-1.9V18.2
		c0-0.7-0.4-1.4-1-1.7C192.6,16.2,191.9,16.2,191.3,16.6z M133.9,15.4l-18.5,6.3c-0.9,0.3-1.4,1.2-1.3,2.1c0.2,0.9,1,1.6,1.9,1.6
		h15.3c0.7,0,1.4-0.4,1.7-1.1l3.2-6.3c0.4-0.7,0.3-1.5-0.3-2.1C135.5,15.3,134.7,15.1,133.9,15.4z M5.1,171.7c-1.5,0-3-0.7-4-1.9
		c-1.3-1.6-1.4-3.9-0.5-5.6c0,0,0,0,0-0.1L68.9,28.6c0,0,0-0.1,0.1-0.1c0.6-1.4,1.8-2.5,3.3-2.9c0,0,0.1,0,0.1,0l74.1-25.1
		c0,0,0.1,0,0.1,0c0.6-0.2,1.2-0.4,1.9-0.4h50.9c2.8,0,5.1,2.3,5.1,5.1v78.6c0,2.8-2.3,5.1-5.1,5.1h-30.6c-1.1,0-1.9,0.9-1.9,1.9
		v75.9c0,2.8-2.3,5.1-5.1,5.1L5.1,171.7L5.1,171.7z M105,80.1l21-41.7c0.3-0.6,0.3-1.3-0.1-1.9c-0.4-0.6-1-0.9-1.6-0.9H77.9
		c-0.7,0-1.4,0.4-1.7,1.1L24,140.3c-0.4,0.8-0.2,1.8,0.5,2.4c0.7,0.6,1.7,0.6,2.4,0l77.6-62C104.7,80.5,104.9,80.3,105,80.1z
		 M25,161.5h129.7c1.1,0,1.9-0.9,1.9-1.9V90.7c0-1.1-0.9-1.9-1.9-1.9h-43.4c-0.5,0-0.8,0.1-1.2,0.4l-86.3,68.9
		c-0.7,0.5-0.9,1.4-0.6,2.1C23.5,161,24.2,161.5,25,161.5z"/>
	<g>
		<polygon class="st1" points="499.8,84.5 499.8,69.5 469.2,69.5 469.2,11.1 449.3,11.1 449.3,84.5 469.2,84.5 		"/>
		<polygon class="st1" points="528.5,69.5 528.5,11.1 508.6,11.1 508.6,84.5 528.5,84.5 559.1,84.5 559.1,69.5 		"/>
		<path class="st1" d="M278,43.7l-14.7-7.3c-1.7-1-4.1-2.3-4.6-4.4c-0.1-0.3-0.1-0.6-0.1-0.9c0-2.8,2.2-3.5,4.6-3.5h26.4V11.1h-26.4
			c-12.3,0.2-24.4,6.2-24.4,20c0,3.6,0.6,7,2.4,10.2c2.5,4.3,7.6,7.9,12.8,10.7l14.7,7.3c1.7,1,4,2.4,4.5,4.5
			c0.1,0.3,0.1,0.6,0.1,0.9c0,2.8-2.2,3.6-4.6,3.6h-28.2v16.6h28.2c12.3-0.2,24.4-6.3,24.4-20.1c0-3.6-0.6-7-2.4-10.2
			C288.2,50.2,283.2,46.6,278,43.7z"/>
		<polygon class="st1" points="321.9,41.7 338.2,74 354.5,41.7 354.5,84.5 373.7,84.5 373.7,11.1 354.5,11.1 338.2,42.4 321.9,11.1 
			302.7,11.1 302.7,84.5 321.9,84.5 		"/>
		<path class="st1" d="M402.1,62.8h18.7v21.7h19.5V32c0-15.9-14.7-22.5-28.8-22.5c-14.1,0-28.9,6.6-28.9,22.5v52.5h19.5V62.8z
			 M420.8,32v15.7h-18.7V32C402.1,24.1,420.8,23.9,420.8,32z"/>
		<rect x="302.7" y="97.6" class="st1" width="20.1" height="73.4"/>
		<path class="st1" d="M278,130.3l-14.7-7.3c-1.7-1-4.1-2.3-4.6-4.4c-0.1-0.3-0.1-0.6-0.1-0.9c0-2.8,2.2-3.5,4.6-3.5h26.4V97.6
			h-26.4c-12.3,0.2-24.4,6.2-24.4,20c0,3.6,0.6,7,2.4,10.2c2.5,4.3,7.6,7.9,12.8,10.7l14.7,7.3c1.7,1,4,2.4,4.5,4.5
			c0.1,0.3,0.1,0.6,0.1,0.9c0,2.8-2.2,3.6-4.6,3.6h-28.2v16.6h28.2c12.3-0.2,24.4-6.3,24.4-20.1c0-3.6-0.6-7-2.4-10.2
			C288.2,136.8,283.2,133.2,278,130.3z"/>
		<path class="st1" d="M367.3,97.6h-5.4h-10.2h-19.9v73.4h19.9h10.2h5.4c13.8,0,22.4-8.1,22.4-22.1v-1.4v-26.5v-1.4
			C389.7,105.7,381,97.6,367.3,97.6z M369.4,147.6c0,4.8-2.7,7.5-7.6,7.5h-10.2v-41.4h10.2c4.8,0,7.6,2.7,7.6,7.5V147.6z"/>
		<path class="st1" d="M494.7,97.6h-5.4h-10.2h-19.9v73.4h19.9h10.2h5.4c13.8,0,22.4-8.1,22.4-22.1v-1.4v-26.5v-1.4
			C517.1,105.7,508.4,97.6,494.7,97.6z M496.8,147.6c0,4.8-2.7,7.5-7.6,7.5h-10.2v-41.4h10.2c4.8,0,7.6,2.7,7.6,7.5V147.6z"/>
		<polygon class="st1" points="399.2,97.6 399.2,171.1 419.1,171.1 449.7,171.1 449.7,156 419.1,156 419.1,141.9 445,141.9 
			445,126.8 419.1,126.8 419.1,112.7 449.7,112.7 449.7,97.6 419.1,97.6 		"/>
	</g>
</g>
</svg>
