<?xml version="1.0" encoding="utf-8"?>
<!-- Generator: Adobe Illustrator 25.4.1, SVG Export Plug-In . SVG Version: 6.00 Build 0)  -->
<svg version="1.1" id="Layer_1" xmlns="http://www.w3.org/2000/svg" xmlns:xlink="http://www.w3.org/1999/xlink" x="0px" y="0px"
	 viewBox="0 0 204.4 171.7" style="enable-background:new 0 0 204.4 171.7;" xml:space="preserve">
<style type="text/css">
	.st0{fill:#98ED66;}
</style>
<g>
	<path class="st0" d="M156.7,76.7V37.5c0-1.1-0.9-1.9-1.9-1.9H140c-0.7,0-1.4,0.4-1.7,1.1l-19.8,39.3c-0.3,0.6-0.3,1.3,0.1,1.9
		c0.4,0.6,1,0.9,1.6,0.9h34.5C155.8,78.6,156.7,77.8,156.7,76.7 M160.7,25l16.8-11.4c0.7-0.5,1-1.3,0.8-2.2c-0.3-0.8-1-1.4-1.8-1.4
		h-23.7c-0.7,0-1.4,0.4-1.7,1.1l-5.7,11.4c-0.3,0.6-0.3,1.3,0.1,1.9c0.4,0.6,1,0.9,1.6,0.9h12.6C160,25.4,160.4,25.3,160.7,25z
		 M191.3,16.6l-23.6,15.9c-0.5,0.4-0.8,0.9-0.8,1.6v42.5c0,1.1,0.9,1.9,1.9,1.9h23.6c1.1,0,1.9-0.9,1.9-1.9V18.2
		c0-0.7-0.4-1.4-1-1.7C192.6,16.2,191.9,16.2,191.3,16.6z M133.9,15.4l-18.5,6.3c-0.9,0.3-1.4,1.2-1.3,2.1c0.2,0.9,1,1.6,1.9,1.6
		h15.3c0.7,0,1.4-0.4,1.7-1.1l3.2-6.3c0.4-0.7,0.3-1.5-0.3-2.1C135.5,15.3,134.7,15.1,133.9,15.4z M5.1,171.7c-1.5,0-3-0.7-4-1.9
		c-1.3-1.6-1.4-3.9-0.5-5.6c0,0,0,0,0-0.1L68.9,28.6c0,0,0-0.1,0.1-0.1c0.6-1.4,1.8-2.5,3.3-2.9c0,0,0.1,0,0.1,0l74.1-25.1
		c0,0,0.1,0,0.1,0c0.6-0.2,1.2-0.4,1.9-0.4h50.9c2.8,0,5.1,2.3,5.1,5.1v78.6c0,2.8-2.3,5.1-5.1,5.1h-30.6c-1.1,0-1.9,0.9-1.9,1.9
		v75.9c0,2.8-2.3,5.1-5.1,5.1L5.1,171.7L5.1,171.7z M105,80.1l21-41.7c0.3-0.6,0.3-1.3-0.1-1.9c-0.4-0.6-1-0.9-1.6-0.9H77.9
		c-0.7,0-1.4,0.4-1.7,1.1L24,140.3c-0.4,0.8-0.2,1.8,0.5,2.4c0.7,0.6,1.7,0.6,2.4,0l77.6-62C104.7,80.5,104.9,80.3,105,80.1z
		 M25,161.5h129.7c1.1,0,1.9-0.9,1.9-1.9V90.7c0-1.1-0.9-1.9-1.9-1.9h-43.4c-0.5,0-0.8,0.1-1.2,0.4l-86.3,68.9
		c-0.7,0.5-0.9,1.4-0.6,2.1C23.5,161,24.2,161.5,25,161.5z"/>
</g>
</svg>
