<?xml version="1.0" encoding="utf-8"?>
<!-- Generator: Adobe Illustrator 25.4.1, SVG Export Plug-In . SVG Version: 6.00 Build 0)  -->
<svg version="1.1" id="Layer_1" xmlns="http://www.w3.org/2000/svg" xmlns:xlink="http://www.w3.org/1999/xlink" x="0px" y="0px"
	 viewBox="0 0 650 104.1" style="enable-background:new 0 0 650 104.1;" xml:space="preserve">
<style type="text/css">
	.st0{fill:#98ED66;}
	.st1{fill-rule:evenodd;clip-rule:evenodd;fill:#FFFFFF;}
</style>
<g>
	<path class="st0" d="M95,46.5V22.7c0-0.6-0.5-1.2-1.2-1.2h-8.9c-0.5,0-0.8,0.2-1,0.6L71.9,46c-0.2,0.4-0.2,0.8,0,1.1
		c0.2,0.4,0.6,0.6,1,0.6h20.9C94.5,47.7,95,47.2,95,46.5 M97.5,15.2l10.2-6.9c0.4-0.3,0.6-0.8,0.5-1.3c-0.2-0.5-0.6-0.8-1.1-0.8
		H92.7c-0.5,0-0.8,0.2-1,0.6l-3.5,6.9c-0.2,0.4-0.2,0.8,0,1.1c0.2,0.4,0.6,0.6,1,0.6h7.6C97,15.4,97.3,15.3,97.5,15.2z M116,10.1
		l-14.3,9.7c-0.3,0.2-0.5,0.6-0.5,1v25.8c0,0.6,0.5,1.2,1.2,1.2h14.3c0.6,0,1.2-0.5,1.2-1.2V11.1c0-0.4-0.2-0.8-0.6-1
		C116.8,9.8,116.4,9.8,116,10.1z M81.2,9.3L70,13.1c-0.5,0.2-0.9,0.7-0.8,1.3c0.1,0.6,0.6,1,1.2,1h9.3c0.5,0,0.8-0.2,1-0.6l1.9-3.8
		c0.2-0.4,0.2-0.9-0.2-1.3C82.2,9.3,81.7,9.2,81.2,9.3z M3.1,104.1c-0.9,0-1.8-0.4-2.4-1.2c-0.8-1-0.9-2.3-0.3-3.4c0,0,0,0,0,0
		l41.4-82.2c0,0,0,0,0-0.1c0.4-0.9,1.1-1.5,2-1.8c0,0,0,0,0.1,0L88.8,0.2c0,0,0,0,0.1,0C89.3,0.1,89.6,0,90,0h30.9
		c1.7,0,3.1,1.4,3.1,3.1v47.7c0,1.7-1.4,3.1-3.1,3.1h-18.6c-0.6,0-1.2,0.5-1.2,1.2v46c0,1.7-1.4,3.1-3.1,3.1L3.1,104.1L3.1,104.1z
		 M63.7,48.6l12.8-25.3c0.2-0.4,0.2-0.8,0-1.1c-0.2-0.4-0.6-0.6-1-0.6H47.3c-0.5,0-0.8,0.2-1,0.6L14.5,85.1
		c-0.3,0.5-0.1,1.1,0.3,1.4c0.4,0.4,1,0.4,1.5,0L63.4,49C63.5,48.8,63.6,48.7,63.7,48.6z M15.2,98h78.7c0.6,0,1.2-0.5,1.2-1.2V55
		c0-0.6-0.5-1.2-1.2-1.2H67.5c-0.3,0-0.5,0.1-0.7,0.3L14.5,95.9c-0.4,0.3-0.5,0.8-0.4,1.3C14.3,97.7,14.7,98,15.2,98z"/>
	<g>
		<polygon class="st1" points="341.8,23 326.2,23 326.2,80.7 341.8,80.7 365.9,80.7 365.9,68.8 341.8,68.8 		"/>
		<polygon class="st1" points="388.4,23 372.8,23 372.8,80.7 388.4,80.7 412.5,80.7 412.5,68.8 388.4,68.8 		"/>
		<path class="st1" d="M191.8,48.7l-11.6-5.7c-1.3-0.8-3.2-1.8-3.6-3.5c-0.1-0.2-0.1-0.5-0.1-0.7c0-2.2,1.8-2.7,3.6-2.7h20.8V23
			h-20.8c-9.7,0.1-19.2,4.9-19.2,15.7c0,2.8,0.5,5.5,1.9,8c2,3.4,6,6.2,10,8.4l11.6,5.7c1.3,0.8,3.2,1.9,3.5,3.5
			c0.1,0.2,0.1,0.5,0.1,0.7c0,2.2-1.8,2.8-3.6,2.8h-22.1v13h22.1c9.7-0.1,19.2-5,19.2-15.8c0-2.8-0.5-5.5-1.9-8
			C199.8,53.7,195.8,50.9,191.8,48.7z"/>
		<polygon class="st1" points="239,47.6 226.2,23 211.2,23 211.2,80.7 226.2,80.7 226.2,47 239,72.4 251.8,47 251.8,80.7 
			266.9,80.7 266.9,23 251.8,23 		"/>
		<path class="st1" d="M296.6,21.8c-11,0-22.7,5.2-22.7,17.7v41.2h15.3V63.6h14.7v17.1h15.3V39.5C319.2,27,307.6,21.8,296.6,21.8z
			 M303.9,51.8h-14.7V39.5c0-6.2,14.7-6.4,14.7,0V51.8z"/>
		<rect x="481.7" y="23" class="st1" width="15.8" height="57.7"/>
		<path class="st1" d="M462.3,48.7l-11.6-5.7c-1.3-0.8-3.2-1.8-3.6-3.5c-0.1-0.2-0.1-0.5-0.1-0.7c0-2.2,1.8-2.7,3.6-2.7h20.8V23
			h-20.8c-9.7,0.1-19.2,4.9-19.2,15.7c0,2.8,0.5,5.5,1.9,8c2,3.4,6,6.2,10,8.4l11.6,5.7c1.3,0.8,3.2,1.9,3.5,3.5
			c0.1,0.2,0.1,0.5,0.1,0.7c0,2.2-1.8,2.8-3.6,2.8h-22.1v13H455c9.7-0.1,19.2-5,19.2-15.8c0-2.8-0.5-5.5-1.9-8
			C470.3,53.7,466.4,50.9,462.3,48.7z"/>
		<path class="st1" d="M532.4,23h-4.2h-8h-15.6v57.7h15.6h8h4.2c10.8,0,17.6-6.3,17.6-17.3v-1.1V41.4v-1.1
			C550,29.3,543.2,23,532.4,23z M534.1,62.2c0,3.8-2.2,5.9-5.9,5.9h-8V35.6h8c3.8,0,5.9,2.1,5.9,5.9V62.2z"/>
		<path class="st1" d="M632.4,23h-4.2h-8h-15.6v57.7h15.6h8h4.2c10.8,0,17.6-6.3,17.6-17.3v-1.1V41.4v-1.1
			C650,29.3,643.2,23,632.4,23z M634.1,62.2c0,3.8-2.2,5.9-5.9,5.9h-8V35.6h8c3.8,0,5.9,2.1,5.9,5.9V62.2z"/>
		<polygon class="st1" points="557.5,23 557.5,80.7 573.1,80.7 597.1,80.7 597.1,68.8 573.1,68.8 573.1,57.7 593.5,57.7 593.5,45.9 
			573.1,45.9 573.1,34.8 597.1,34.8 597.1,23 573.1,23 		"/>
	</g>
</g>
</svg>
